<svg width="16" height="18" viewBox="0 0 16 18" fill="none" xmlns="http://www.w3.org/2000/svg">
<path d="M7.88814 16.875C7.25533 16.875 6.76314 16.3828 6.76314 15.75H5.63814C5.63814 17.0156 6.62252 18 7.88814 18C9.11861 18 10.1381 17.0156 10.1381 15.75H9.01314C9.01314 16.3828 8.4858 16.875 7.88814 16.875ZM15.2358 11.7773C14.2514 10.8633 13.5131 9.87891 13.5131 6.53906C13.5131 3.76172 11.2631 1.47656 8.45064 1.19531V0.5625C8.45064 0.28125 8.16939 0 7.88814 0C7.57174 0 7.32564 0.28125 7.32564 0.5625V1.19531C4.47799 1.47656 2.22799 3.76172 2.22799 6.53906C2.22799 9.87891 1.48971 10.8633 0.50533 11.7773C0.0131429 12.2695 -0.127482 12.9727 0.118612 13.6055C0.364705 14.2383 0.997518 14.625 1.70064 14.625H14.0756C14.7436 14.625 15.3764 14.2383 15.6225 13.6055C15.8686 12.9727 15.728 12.2695 15.2358 11.7773ZM14.0756 13.5H1.70064C1.1733 13.5 0.927205 12.9375 1.27877 12.5859C2.50924 11.4258 3.35299 10.125 3.35299 6.53906C3.35299 4.18359 5.39205 2.25 7.88814 2.25C10.3491 2.25 12.3881 4.18359 12.3881 6.53906C12.3881 10.125 13.2319 11.4258 14.4624 12.5859C14.8139 12.9375 14.5678 13.5 14.0756 13.5Z" fill="#3F3F49"/>
</svg>
