<svg width="16" height="18" viewBox="0 0 16 18" fill="none" xmlns="http://www.w3.org/2000/svg">
<path d="M11.0039 10.125C9.98438 10.125 9.52734 10.6875 7.875 10.6875C6.1875 10.6875 5.73047 10.125 4.71094 10.125C2.10938 10.125 0 12.2695 0 14.8711V16.3125C0 17.2617 0.738281 18 1.6875 18H14.0625C14.9766 18 15.75 17.2617 15.75 16.3125V14.8711C15.75 12.2695 13.6055 10.125 11.0039 10.125ZM14.625 16.3125C14.625 16.6289 14.3438 16.875 14.0625 16.875H1.6875C1.37109 16.875 1.125 16.6289 1.125 16.3125V14.8711C1.125 12.8672 2.70703 11.25 4.71094 11.25C5.41406 11.25 6.08203 11.8125 7.875 11.8125C9.63281 11.8125 10.3359 11.25 11.0039 11.25C13.0078 11.25 14.625 12.8672 14.625 14.8711V16.3125ZM7.875 9C10.3359 9 12.375 6.99609 12.375 4.5C12.375 2.03906 10.3359 0 7.875 0C5.37891 0 3.375 2.03906 3.375 4.5C3.375 6.99609 5.37891 9 7.875 9ZM7.875 1.125C9.70312 1.125 11.25 2.67188 11.25 4.5C11.25 6.36328 9.70312 7.875 7.875 7.875C6.01172 7.875 4.5 6.36328 4.5 4.5C4.5 2.67188 6.01172 1.125 7.875 1.125Z" fill="#3F3F49"/>
</svg>
