<svg width="16" height="18" viewBox="0 0 16 18" fill="none" xmlns="http://www.w3.org/2000/svg">
<path d="M15.75 13.7812V0.84375C15.75 0.386719 15.3633 0 14.9062 0H2.8125C1.23047 0 0 1.26562 0 2.8125V15.75C0 17.0156 0.984375 18 2.25 18H15.3281C15.5391 18 15.75 17.8242 15.75 17.5781V17.2969C15.75 17.0859 15.5391 16.875 15.3281 16.875H15.1875C15.0469 16.1719 15.082 15.1523 15.2227 14.5898C15.5039 14.4492 15.75 14.1328 15.75 13.7812ZM14.2031 16.875H2.25C1.61719 16.875 1.125 16.3828 1.125 15.75C1.125 15.1523 1.61719 14.625 2.25 14.625H14.2031C14.0977 15.293 14.0977 16.1719 14.2031 16.875ZM14.625 13.5H2.25C1.82812 13.5 1.44141 13.6406 1.125 13.8164V2.8125C1.125 1.89844 1.86328 1.125 2.8125 1.125H14.625V13.5Z" fill="#3F3F49"/>
</svg>
