<svg width="17" height="17" viewBox="0 0 17 17" fill="none" xmlns="http://www.w3.org/2000/svg">
<path d="M15.3346 0.15283L0.534355 8.71426C-0.225479 9.14565 -0.159406 10.2739 0.633464 10.6057L5.29157 12.5304V15.9152C5.29157 16.9439 6.51391 17.3753 7.1416 16.612L9.15681 14.1564L13.3194 15.882C13.9471 16.1474 14.6739 15.7492 14.773 15.0524L16.8873 1.21471C17.0194 0.351933 16.0944 -0.311744 15.3346 0.15283ZM6.34873 15.9152V12.995L8.13269 13.725L6.34873 15.9152ZM13.7489 14.9196L6.91035 12.0658L13.5176 4.26763C13.6828 4.06852 13.4185 3.80305 13.2203 3.96897L4.79603 11.2031L1.06293 9.64341L15.8632 1.04879L13.7489 14.9196Z" fill="#3F3F49"/>
</svg>
