<svg width="21" height="14" viewBox="0 0 21 14" fill="none" xmlns="http://www.w3.org/2000/svg">
<path d="M19.8984 5.76562L16.2422 0.703125C15.9258 0.28125 15.4336 0 14.8711 0H5.34375C4.78125 0 4.28906 0.28125 3.97266 0.703125L0.316406 5.76562C0.105469 6.04688 0 6.39844 0 6.75V11.8125C0 12.7617 0.738281 13.5 1.6875 13.5H18.5625C19.4766 13.5 20.25 12.7617 20.25 11.8125V6.75C20.25 6.39844 20.1094 6.04688 19.8984 5.76562ZM4.88672 1.37109C4.99219 1.23047 5.16797 1.16016 5.34375 1.125H14.8711C15.0469 1.125 15.2227 1.23047 15.3281 1.37109L18.4219 5.625H13.6406L12.5156 7.875H7.69922L6.57422 5.625H1.79297L4.88672 1.37109ZM19.125 7.3125V11.8125C19.125 12.1289 18.8438 12.375 18.5625 12.375H1.6875C1.37109 12.375 1.125 12.1289 1.125 11.8125V7.3125C1.125 7.03125 1.37109 6.75 1.6875 6.75H5.90625L7.03125 9H13.2188L14.3438 6.75H18.5625C18.8438 6.75 19.125 7.03125 19.125 7.3125Z" fill="#3F3F49"/>
</svg>
