<svg width="18" height="14" viewBox="0 0 18 14" fill="none" xmlns="http://www.w3.org/2000/svg">
<path d="M14.9062 10.125H15.4688C15.6094 10.125 15.75 10.0195 15.75 9.84375V1.40625C15.75 1.26562 15.6094 1.125 15.4688 1.125H14.9062C14.7305 1.125 14.625 1.26562 14.625 1.40625V9.84375C14.625 10.0195 14.7305 10.125 14.9062 10.125ZM11.5312 10.125H12.0938C12.2344 10.125 12.375 10.0195 12.375 9.84375V4.78125C12.375 4.64062 12.2344 4.5 12.0938 4.5H11.5312C11.3555 4.5 11.25 4.64062 11.25 4.78125V9.84375C11.25 10.0195 11.3555 10.125 11.5312 10.125ZM4.78125 10.125H5.34375C5.48438 10.125 5.625 10.0195 5.625 9.84375V7.03125C5.625 6.89062 5.48438 6.75 5.34375 6.75H4.78125C4.60547 6.75 4.5 6.89062 4.5 7.03125V9.84375C4.5 10.0195 4.60547 10.125 4.78125 10.125ZM8.15625 10.125H8.71875C8.85938 10.125 9 10.0195 9 9.84375V2.53125C9 2.39062 8.85938 2.25 8.71875 2.25H8.15625C7.98047 2.25 7.875 2.39062 7.875 2.53125V9.84375C7.875 10.0195 7.98047 10.125 8.15625 10.125ZM17.7188 12.375H1.125V0.28125C1.125 0.140625 0.984375 0 0.84375 0H0.28125C0.105469 0 0 0.140625 0 0.28125V12.9375C0 13.2539 0.246094 13.5 0.5625 13.5H17.7188C17.8594 13.5 18 13.3945 18 13.2188V12.6562C18 12.5156 17.8594 12.375 17.7188 12.375Z" fill="#3F3F49"/>
</svg>
