<svg width="14" height="15" viewBox="0 0 14 15" fill="none" xmlns="http://www.w3.org/2000/svg">
<path d="M13.8906 13.0742L10.582 9.76562C10.5 9.71094 10.418 9.65625 10.3359 9.65625H9.98047C10.8281 8.67188 11.375 7.35938 11.375 5.9375C11.375 2.82031 8.80469 0.25 5.6875 0.25C2.54297 0.25 0 2.82031 0 5.9375C0 9.08203 2.54297 11.625 5.6875 11.625C7.10938 11.625 8.39453 11.1055 9.40625 10.2578V10.6133C9.40625 10.6953 9.43359 10.7773 9.48828 10.8594L12.7969 14.168C12.9336 14.3047 13.1523 14.3047 13.2617 14.168L13.8906 13.5391C14.0273 13.4297 14.0273 13.2109 13.8906 13.0742ZM5.6875 10.3125C3.25391 10.3125 1.3125 8.37109 1.3125 5.9375C1.3125 3.53125 3.25391 1.5625 5.6875 1.5625C8.09375 1.5625 10.0625 3.53125 10.0625 5.9375C10.0625 8.37109 8.09375 10.3125 5.6875 10.3125Z" fill="#141417"/>
</svg>
