<svg width="17" height="18" viewBox="0 0 17 18" fill="none" xmlns="http://www.w3.org/2000/svg">
<path d="M16.4801 10.8064L14.9684 9.9626C15.1441 9.11885 15.1441 8.31026 14.9684 7.46651L16.4801 6.62276C16.6558 6.51729 16.7262 6.30635 16.6558 6.13057C16.2691 4.86494 15.6012 3.73994 14.7574 2.79073C14.6168 2.6501 14.4059 2.61494 14.2301 2.72041L12.7184 3.56416C12.0855 3.03682 11.3824 2.61494 10.609 2.33369V0.611038C10.609 0.435257 10.4684 0.259476 10.2574 0.224319C8.95663 -0.0920869 7.65585 -0.0569306 6.42538 0.224319C6.21444 0.259476 6.10898 0.435257 6.10898 0.611038V2.33369C5.30038 2.61494 4.59726 3.03682 3.96444 3.59932L2.45273 2.72041C2.27694 2.61494 2.06601 2.6501 1.92538 2.79073C1.08163 3.73994 0.413663 4.86494 0.026944 6.13057C-0.0433685 6.30635 0.026944 6.51729 0.202725 6.62276L1.71444 7.46651C1.57382 8.31026 1.57382 9.11885 1.71444 9.9626L0.202725 10.8064C0.026944 10.9118 -0.0433685 11.1228 0.026944 11.2985C0.413663 12.5642 1.08163 13.6892 1.92538 14.6384C2.06601 14.779 2.27694 14.8142 2.45273 14.7087L3.96444 13.8649C4.59726 14.3923 5.30038 14.8142 6.10898 15.0954V16.8181C6.10898 16.9938 6.2496 17.1696 6.42538 17.2399C7.72616 17.5212 9.02694 17.486 10.2574 17.2399C10.4684 17.1696 10.609 16.9938 10.609 16.8181V15.0954C11.3824 14.8142 12.0855 14.3923 12.7184 13.8649L14.2301 14.7087C14.4059 14.8142 14.6168 14.779 14.7574 14.6384C15.6363 13.6892 16.2691 12.5642 16.691 11.2985C16.7262 11.1228 16.6558 10.9118 16.4801 10.8064ZM8.35898 11.5095C6.77694 11.5095 5.54648 10.279 5.54648 8.69698C5.54648 7.1501 6.77694 5.88448 8.35898 5.88448C9.90585 5.88448 11.1715 7.1501 11.1715 8.69698C11.1715 10.279 9.90585 11.5095 8.35898 11.5095Z" fill="#3F3F49"/>
</svg>
